<svg width="29" height="28" viewBox="0 0 29 28" fill="none" xmlns="http://www.w3.org/2000/svg">
<path d="M27.915 0.584997C27.6635 0.333661 27.3496 0.153915 27.0055 0.0642723C26.6614 -0.0253704 26.2997 -0.0216685 25.9575 0.0749966H25.9388L1.94626 7.355C1.5557 7.46731 1.20863 7.69594 0.951256 8.01044C0.693882 8.32493 0.538419 8.71037 0.50557 9.11542C0.47272 9.52048 0.564042 9.92593 0.767376 10.2778C0.97071 10.6296 1.27641 10.9112 1.64376 11.085L12.3463 16.1537L17.415 26.8562C17.575 27.199 17.8298 27.4888 18.1492 27.6915C18.4686 27.8941 18.8393 28.0012 19.2175 28C19.275 28 19.3325 27.9975 19.39 27.9925C19.7936 27.9598 20.1776 27.8045 20.4904 27.5473C20.8032 27.2901 21.0299 26.9434 21.14 26.5537L28.415 2.56125V2.5425C28.5129 2.2012 28.5182 1.83999 28.4304 1.49597C28.3425 1.15195 28.1646 0.837526 27.915 0.584997ZM19.2288 25.9812L19.2225 25.9987L14.3025 15.6125L20.2075 9.70625C20.3871 9.51718 20.4858 9.26543 20.4824 9.00467C20.4791 8.74391 20.374 8.49477 20.1896 8.31037C20.0052 8.12597 19.7561 8.0209 19.4953 8.01756C19.2346 8.01422 18.9828 8.11288 18.7938 8.2925L12.8875 14.1975L2.50001 9.2775H2.51751L26.5 2L19.2288 25.9812Z" fill="white"/>
</svg>
