<svg width="15" height="20" viewBox="0 0 15 20" fill="none" xmlns="http://www.w3.org/2000/svg">
<path d="M4.5 19C4.5 19.55 4.95 20 5.5 20H9.5C10.05 20 10.5 19.55 10.5 19V18H4.5V19ZM7.5 0C3.64 0 0.5 3.14 0.5 7C0.5 9.38 1.69 11.47 3.5 12.74V15C3.5 15.55 3.95 16 4.5 16H10.5C11.05 16 11.5 15.55 11.5 15V12.74C13.31 11.47 14.5 9.38 14.5 7C14.5 3.14 11.36 0 7.5 0ZM10.35 11.1L9.5 11.7V14H5.5V11.7L4.65 11.1C3.98749 10.6407 3.44594 10.0279 3.07155 9.314C2.69717 8.60006 2.50107 7.80615 2.5 7C2.5 4.24 4.74 2 7.5 2C10.26 2 12.5 4.24 12.5 7C12.5 8.63 11.7 10.16 10.35 11.1Z" fill="white"/>
</svg>
