<svg width="29" height="20" viewBox="0 0 29 20" fill="none" xmlns="http://www.w3.org/2000/svg">
<path d="M10.5 8C10.5 7.73478 10.6054 7.48043 10.7929 7.29289C10.9804 7.10536 11.2348 7 11.5 7H21.5C21.7652 7 22.0196 7.10536 22.2071 7.29289C22.3946 7.48043 22.5 7.73478 22.5 8C22.5 8.26522 22.3946 8.51957 22.2071 8.70711C22.0196 8.89464 21.7652 9 21.5 9H11.5C11.2348 9 10.9804 8.89464 10.7929 8.70711C10.6054 8.51957 10.5 8.26522 10.5 8ZM11.5 13H21.5C21.7652 13 22.0196 12.8946 22.2071 12.7071C22.3946 12.5196 22.5 12.2652 22.5 12C22.5 11.7348 22.3946 11.4804 22.2071 11.2929C22.0196 11.1054 21.7652 11 21.5 11H11.5C11.2348 11 10.9804 11.1054 10.7929 11.2929C10.6054 11.4804 10.5 11.7348 10.5 12C10.5 12.2652 10.6054 12.5196 10.7929 12.7071C10.9804 12.8946 11.2348 13 11.5 13ZM28.5 2V17C28.5 17.7956 28.1839 18.5587 27.6213 19.1213C27.0587 19.6839 26.2956 20 25.5 20H3.5C2.70673 20 1.94574 19.6858 1.38353 19.1262C0.821311 18.5665 0.503636 17.807 0.5 17.0138V5C0.5 4.73478 0.605357 4.48043 0.792893 4.29289C0.98043 4.10536 1.23478 4 1.5 4C1.76522 4 2.01957 4.10536 2.20711 4.29289C2.39464 4.48043 2.5 4.73478 2.5 5V17C2.5 17.2652 2.60536 17.5196 2.79289 17.7071C2.98043 17.8946 3.23478 18 3.5 18C3.76522 18 4.01957 17.8946 4.20711 17.7071C4.39464 17.5196 4.5 17.2652 4.5 17V2C4.5 1.46957 4.71071 0.960859 5.08579 0.585786C5.46086 0.210714 5.96957 0 6.5 0H26.5C27.0304 0 27.5391 0.210714 27.9142 0.585786C28.2893 0.960859 28.5 1.46957 28.5 2ZM26.5 2H6.5V17C6.5005 17.3407 6.44257 17.6789 6.32875 18H25.5C25.7652 18 26.0196 17.8946 26.2071 17.7071C26.3946 17.5196 26.5 17.2652 26.5 17V2Z" fill="white"/>
</svg>
