<svg width="25" height="30" viewBox="0 0 25 30" fill="none" xmlns="http://www.w3.org/2000/svg">
<path d="M0.708694 13.4862C0.716194 13.47 0.723694 13.4538 0.732445 13.4388L4.49994 6.7375V2C4.49994 1.46957 4.71066 0.960859 5.08573 0.585786C5.4608 0.210714 5.96951 0 6.49994 0H18.4999C19.0304 0 19.5391 0.210714 19.9142 0.585786C20.2892 0.960859 20.4999 1.46957 20.4999 2V6.74L24.2674 13.4388C24.2762 13.4538 24.2837 13.47 24.2924 13.4862C24.4557 13.8148 24.525 14.1821 24.4928 14.5476C24.4606 14.913 24.3281 15.2625 24.1099 15.5575L24.0962 15.575L13.2912 29.61C13.1978 29.7311 13.0778 29.8292 12.9405 29.8967C12.8032 29.9642 12.6523 29.9993 12.4993 29.9993C12.3463 29.9993 12.1954 29.9642 12.0581 29.8967C11.9208 29.8292 11.8009 29.7311 11.7074 29.61L0.903694 15.575L0.889944 15.5575C0.671717 15.2625 0.539291 14.913 0.507305 14.5474C0.475319 14.1819 0.545015 13.8146 0.708694 13.4862ZM6.49994 2V6H18.4999V2H6.49994ZM12.4999 16C12.7966 16 13.0866 15.912 13.3333 15.7472C13.58 15.5824 13.7722 15.3481 13.8858 15.074C13.9993 14.7999 14.029 14.4983 13.9711 14.2074C13.9132 13.9164 13.7704 13.6491 13.5606 13.4393C13.3508 13.2296 13.0836 13.0867 12.7926 13.0288C12.5016 12.9709 12.2 13.0006 11.9259 13.1142C11.6518 13.2277 11.4176 13.42 11.2527 13.6666C11.0879 13.9133 10.9999 14.2033 10.9999 14.5C10.9999 14.8978 11.158 15.2794 11.4393 15.5607C11.7206 15.842 12.1021 16 12.4999 16ZM11.4999 26.0625V17.8538C10.6943 17.6135 10.002 17.0914 9.54968 16.3827C9.09736 15.6741 8.91524 14.8263 9.03661 13.9944C9.15798 13.1625 9.57474 12.402 10.2107 11.8521C10.8466 11.3023 11.6592 10.9996 12.4999 10.9996C13.3407 10.9996 14.1533 11.3023 14.7892 11.8521C15.4251 12.402 15.8419 13.1625 15.9633 13.9944C16.0847 14.8263 15.9025 15.6741 15.4502 16.3827C14.9979 17.0914 14.3056 17.6135 13.4999 17.8538V26.0613L22.4999 14.375L18.9137 8H6.08494L2.49994 14.375L11.4999 26.0625Z" fill="white"/>
</svg>
