<svg width="157" height="112" viewBox="0 0 157 112" fill="none" xmlns="http://www.w3.org/2000/svg">
<path opacity="0.2" d="M66.6 13.6001C58.3333 16.8001 50.6 21.3334 43.4 27.2001C36.4666 32.8001 32.0666 40.2667 30.2 49.6001C40.6 49.6001 49.4 52.1334 56.6 57.2001C64.0666 62.0001 67.8 70.0001 67.8 81.2001C67.8 90.5334 64.4666 97.8667 57.8 103.2C51.1333 108.533 43.4 111.2 34.6 111.2C22.8666 111.2 14.2 107.333 8.59998 99.6001C3.26664 91.6001 0.599976 82.2667 0.599976 71.6001C0.599976 62 2.46664 53.4667 6.19998 46C10.2 38.5334 15.2666 31.8667 21.4 26C27.5333 20.1334 34.6 15.2001 42.6 11.2001C50.6 6.93338 58.6 3.46671 66.6 0.800049V13.6001ZM155.8 13.6001C147.533 16.8001 139.8 21.3334 132.6 27.2001C125.667 32.8001 121.267 40.2667 119.4 49.6001C129.8 49.6001 138.6 52.1334 145.8 57.2001C153.267 62.0001 157 70.0001 157 81.2001C157 90.5334 153.667 97.8667 147 103.2C140.333 108.533 132.6 111.2 123.8 111.2C112.067 111.2 103.4 107.333 97.8 99.6001C92.4666 91.6001 89.8 82.2667 89.8 71.6001C89.8 62 91.6666 53.4667 95.4 46C99.4 38.5334 104.467 31.8667 110.6 26C116.733 20.1334 123.8 15.2001 131.8 11.2001C139.8 6.93338 147.8 3.46671 155.8 0.800049V13.6001Z" fill="white"/>
</svg>
