<svg width="27" height="22" viewBox="0 0 27 22" fill="none" xmlns="http://www.w3.org/2000/svg">
<path d="M2.05162 6.8325L23.8322 0.0824991C24.127 -0.00437932 24.4378 -0.0207618 24.7399 0.0346471C25.0421 0.0900559 25.3273 0.215736 25.5731 0.401749C25.8189 0.587761 26.0185 0.829003 26.156 1.10639C26.2936 1.38379 26.3655 1.68972 26.3658 2V20C26.3658 20.5304 26.1573 21.0391 25.7861 21.4142C25.4149 21.7893 24.9114 22 24.3865 22C24.1972 22.0001 24.0089 21.9727 23.8273 21.9188L13.4999 18.7162V20C13.4999 20.5304 13.2913 21.0391 12.9201 21.4142C12.5489 21.7893 12.0454 22 11.5205 22H7.56172C7.03676 22 6.53329 21.7893 6.16209 21.4142C5.79088 21.0391 5.58234 20.5304 5.58234 20V16.2625L2.05162 15.1687C1.64299 15.0447 1.28462 14.7912 1.02936 14.4458C0.774101 14.1003 0.635464 13.6811 0.633886 13.25V8.75C0.635729 8.31909 0.774488 7.90018 1.02973 7.55496C1.28497 7.20975 1.64319 6.95649 2.05162 6.8325ZM13.4999 16.625L24.3865 20V2L13.4999 5.375V16.625ZM7.56172 20H11.5205V18.1025L7.56172 16.875V20ZM2.61327 13.25H2.62687L11.5205 16.01V5.99L2.62687 8.74H2.61327V13.24V13.25Z" fill="white"/>
</svg>
