<svg width="27" height="22" viewBox="0 0 27 22" fill="none" xmlns="http://www.w3.org/2000/svg">
<path d="M18.055 8.1675L12.055 4.1675C11.9044 4.067 11.7293 4.00928 11.5484 4.00052C11.3675 3.99176 11.1877 4.03227 11.028 4.11774C10.8684 4.20321 10.7349 4.33043 10.6419 4.48581C10.5489 4.6412 10.4999 4.81891 10.5 5V13C10.4999 13.1811 10.5489 13.3588 10.6419 13.5142C10.7349 13.6696 10.8684 13.7968 11.028 13.8823C11.1877 13.9677 11.3675 14.0082 11.5484 13.9995C11.7293 13.9907 11.9044 13.933 12.055 13.8325L18.055 9.8325C18.1922 9.74122 18.3047 9.61745 18.3825 9.47222C18.4603 9.32698 18.501 9.16477 18.501 9C18.501 8.83523 18.4603 8.67302 18.3825 8.52778C18.3047 8.38255 18.1922 8.25878 18.055 8.1675ZM12.5 11.1313V6.875L15.6975 9L12.5 11.1313ZM24.5 0H2.5C1.96957 0 1.46086 0.210714 1.08579 0.585786C0.710714 0.960859 0.5 1.46957 0.5 2V16C0.5 16.5304 0.710714 17.0391 1.08579 17.4142C1.46086 17.7893 1.96957 18 2.5 18H24.5C25.0304 18 25.5391 17.7893 25.9142 17.4142C26.2893 17.0391 26.5 16.5304 26.5 16V2C26.5 1.46957 26.2893 0.960859 25.9142 0.585786C25.5391 0.210714 25.0304 0 24.5 0ZM24.5 16H2.5V2H24.5V16ZM26.5 21C26.5 21.2652 26.3946 21.5196 26.2071 21.7071C26.0196 21.8946 25.7652 22 25.5 22H1.5C1.23478 22 0.98043 21.8946 0.792893 21.7071C0.605357 21.5196 0.5 21.2652 0.5 21C0.5 20.7348 0.605357 20.4804 0.792893 20.2929C0.98043 20.1054 1.23478 20 1.5 20H25.5C25.7652 20 26.0196 20.1054 26.2071 20.2929C26.3946 20.4804 26.5 20.7348 26.5 21Z" fill="white"/>
</svg>
